<?xml version="1.0" standalone="no"?>
<!DOCTYPE svg PUBLIC "-//W3C//DTD SVG 20010904//EN"
 "http://www.w3.org/TR/2001/REC-SVG-20010904/DTD/svg10.dtd">
<svg version="1.0" xmlns="http://www.w3.org/2000/svg"
 width="512.000000pt" height="512.000000pt" viewBox="0 0 512.000000 512.000000"
 preserveAspectRatio="xMidYMid meet">
<metadata>
Created by potrace 1.14, written by Peter Selinger 2001-2017
</metadata>
<g transform="translate(0.000000,512.000000) scale(0.100000,-0.100000)"
fill="#000000" stroke="none">
<path d="M2420 4984 c-36 -7 -90 -21 -120 -32 -30 -11 -530 -257 -1110 -546
-1140 -570 -1114 -555 -1162 -660 -23 -50 -23 -58 -23 -376 l0 -325 34 -63
c19 -35 50 -76 70 -91 20 -16 127 -74 239 -130 l202 -101 0 -698 c0 -761 0
-758 58 -866 15 -28 53 -76 84 -108 54 -54 95 -75 805 -428 411 -205 771 -381
799 -391 139 -53 328 -58 476 -15 61 18 264 114 680 321 375 188 594 292 597
284 10 -30 78 -91 129 -116 l57 -28 235 1 c263 0 287 5 367 78 63 57 106 168
98 250 -2 17 -6 63 -10 103 -6 78 -12 128 -20 183 -14 94 -17 114 -20 129 -2
9 -13 59 -24 111 -28 135 -83 296 -132 390 l-42 81 1 377 c0 207 1 382 1 389
1 6 66 44 146 84 151 76 209 119 243 181 37 66 44 137 40 438 -3 274 -4 287
-26 337 -49 106 -29 95 -1167 662 -577 288 -1072 531 -1100 542 -117 43 -285
57 -405 33z"/>
</g>
</svg>
